<svg width="33" height="33" viewBox="0 0 33 33" fill="none" xmlns="http://www.w3.org/2000/svg">
<path d="M19.7974 12.263V20.9178C19.7974 22.581 18.3494 23.9281 16.5616 23.9281C14.7738 23.9281 13.3257 22.581 13.3257 20.9178V11.5104C13.3257 10.4718 14.2318 9.62889 15.3482 9.62889C16.4645 9.62889 17.3706 10.4718 17.3706 11.5104V19.4126C17.3706 19.8265 17.0065 20.1652 16.5616 20.1652C16.1167 20.1652 15.7526 19.8265 15.7526 19.4126V12.263H14.5392V19.4126C14.5392 20.4512 15.4452 21.2941 16.5616 21.2941C17.678 21.2941 18.584 20.4512 18.584 19.4126V11.5104C18.584 9.84714 17.136 8.5 15.3482 8.5C13.5603 8.5 12.1123 9.84714 12.1123 11.5104V20.9178C12.1123 23.2056 14.1024 25.057 16.5616 25.057C19.0208 25.057 21.0109 23.2056 21.0109 20.9178V12.263H19.7974Z" fill="#4C5563"/>
</svg>
