<svg width="24" height="24" viewBox="0 0 24 24" fill="none" xmlns="http://www.w3.org/2000/svg">
<path d="M6.70001 18H4.15002C2.72002 18 2 17.28 2 15.85V4.15002C2 2.72002 2.72002 2 4.15002 2H8.45001C9.88001 2 10.6 2.72002 10.6 4.15002V6" stroke="url(#paint0_linear_1632_25753)" stroke-width="1.5" stroke-miterlimit="10" stroke-linecap="round" stroke-linejoin="round"/>
<path d="M17.3699 8.41998V19.58C17.3699 21.19 16.57 22 14.96 22H9.11993C7.50993 22 6.69995 21.19 6.69995 19.58V8.41998C6.69995 6.80998 7.50993 6 9.11993 6H14.96C16.57 6 17.3699 6.80998 17.3699 8.41998Z" stroke="url(#paint1_linear_1632_25753)" stroke-width="1.5" stroke-miterlimit="10" stroke-linecap="round" stroke-linejoin="round"/>
<path d="M13.3999 6V4.15002C13.3999 2.72002 14.1199 2 15.5499 2H19.8499C21.2799 2 21.9999 2.72002 21.9999 4.15002V15.85C21.9999 17.28 21.2799 18 19.8499 18H17.3699" stroke="url(#paint2_linear_1632_25753)" stroke-width="1.5" stroke-miterlimit="10" stroke-linecap="round" stroke-linejoin="round"/>
<path d="M10 11H14" stroke="url(#paint3_linear_1632_25753)" stroke-width="1.5" stroke-miterlimit="10" stroke-linecap="round" stroke-linejoin="round"/>
<path d="M10 14H14" stroke="url(#paint4_linear_1632_25753)" stroke-width="1.5" stroke-miterlimit="10" stroke-linecap="round" stroke-linejoin="round"/>
<path d="M12 22V19" stroke="url(#paint5_linear_1632_25753)" stroke-width="1.5" stroke-miterlimit="10" stroke-linecap="round" stroke-linejoin="round"/>
<defs>
<linearGradient id="paint0_linear_1632_25753" x1="2.43963" y1="1.60655" x2="15.3969" y2="10.2373" gradientUnits="userSpaceOnUse">
<stop stop-color="#2B5FAD"/>
<stop offset="1" stop-color="#0B2D60"/>
</linearGradient>
<linearGradient id="paint1_linear_1632_25753" x1="7.2454" y1="5.60655" x2="21.0357" y2="17.0031" gradientUnits="userSpaceOnUse">
<stop stop-color="#2B5FAD"/>
<stop offset="1" stop-color="#0B2D60"/>
</linearGradient>
<linearGradient id="paint2_linear_1632_25753" x1="13.8395" y1="1.60655" x2="26.7968" y2="10.2373" gradientUnits="userSpaceOnUse">
<stop stop-color="#2B5FAD"/>
<stop offset="1" stop-color="#0B2D60"/>
</linearGradient>
<linearGradient id="paint3_linear_1632_25753" x1="10.2045" y1="10.9754" x2="10.5447" y2="12.662" gradientUnits="userSpaceOnUse">
<stop stop-color="#2B5FAD"/>
<stop offset="1" stop-color="#0B2D60"/>
</linearGradient>
<linearGradient id="paint4_linear_1632_25753" x1="10.2045" y1="13.9754" x2="10.5447" y2="15.662" gradientUnits="userSpaceOnUse">
<stop stop-color="#2B5FAD"/>
<stop offset="1" stop-color="#0B2D60"/>
</linearGradient>
<linearGradient id="paint5_linear_1632_25753" x1="12.0511" y1="18.9262" x2="13.9092" y2="19.6938" gradientUnits="userSpaceOnUse">
<stop stop-color="#2B5FAD"/>
<stop offset="1" stop-color="#0B2D60"/>
</linearGradient>
</defs>
</svg>
