<svg width="24" height="24" viewBox="0 0 24 24" fill="none" xmlns="http://www.w3.org/2000/svg">
<path d="M8 2V5" stroke="url(#paint0_linear_1632_25774)" stroke-width="1.5" stroke-miterlimit="10" stroke-linecap="round" stroke-linejoin="round"/>
<path d="M16 2V5" stroke="url(#paint1_linear_1632_25774)" stroke-width="1.5" stroke-miterlimit="10" stroke-linecap="round" stroke-linejoin="round"/>
<path d="M3.5 9.09009H20.5" stroke="url(#paint2_linear_1632_25774)" stroke-width="1.5" stroke-miterlimit="10" stroke-linecap="round" stroke-linejoin="round"/>
<path d="M21 8.5V17C21 20 19.5 22 16 22H8C4.5 22 3 20 3 17V8.5C3 5.5 4.5 3.5 8 3.5H16C19.5 3.5 21 5.5 21 8.5Z" stroke="url(#paint3_linear_1632_25774)" stroke-width="1.5" stroke-miterlimit="10" stroke-linecap="round" stroke-linejoin="round"/>
<path d="M15.6947 13.7H15.7037" stroke="url(#paint4_linear_1632_25774)" stroke-width="2" stroke-linecap="round" stroke-linejoin="round"/>
<path d="M15.6947 16.7H15.7037" stroke="url(#paint5_linear_1632_25774)" stroke-width="2" stroke-linecap="round" stroke-linejoin="round"/>
<path d="M11.9955 13.7H12.0045" stroke="url(#paint6_linear_1632_25774)" stroke-width="2" stroke-linecap="round" stroke-linejoin="round"/>
<path d="M11.9955 16.7H12.0045" stroke="url(#paint7_linear_1632_25774)" stroke-width="2" stroke-linecap="round" stroke-linejoin="round"/>
<path d="M8.29431 13.7H8.30329" stroke="url(#paint8_linear_1632_25774)" stroke-width="2" stroke-linecap="round" stroke-linejoin="round"/>
<path d="M8.29431 16.7H8.30329" stroke="url(#paint9_linear_1632_25774)" stroke-width="2" stroke-linecap="round" stroke-linejoin="round"/>
<defs>
<linearGradient id="paint0_linear_1632_25774" x1="8.05112" y1="1.92623" x2="9.9092" y2="2.69376" gradientUnits="userSpaceOnUse">
<stop stop-color="#2B5FAD"/>
<stop offset="1" stop-color="#0B2D60"/>
</linearGradient>
<linearGradient id="paint1_linear_1632_25774" x1="16.0511" y1="1.92623" x2="17.9092" y2="2.69376" gradientUnits="userSpaceOnUse">
<stop stop-color="#2B5FAD"/>
<stop offset="1" stop-color="#0B2D60"/>
</linearGradient>
<linearGradient id="paint2_linear_1632_25774" x1="4.36903" y1="9.0655" x2="4.45216" y2="10.8168" gradientUnits="userSpaceOnUse">
<stop stop-color="#2B5FAD"/>
<stop offset="1" stop-color="#0B2D60"/>
</linearGradient>
<linearGradient id="paint3_linear_1632_25774" x1="3.92015" y1="3.04507" x2="19.8758" y2="22.2835" gradientUnits="userSpaceOnUse">
<stop stop-color="#2B5FAD"/>
<stop offset="1" stop-color="#0B2D60"/>
</linearGradient>
<linearGradient id="paint4_linear_1632_25774" x1="15.2512" y1="13.1754" x2="16.1094" y2="14.2367" gradientUnits="userSpaceOnUse">
<stop stop-color="#2B5FAD"/>
<stop offset="1" stop-color="#0B2D60"/>
</linearGradient>
<linearGradient id="paint5_linear_1632_25774" x1="15.2512" y1="16.1754" x2="16.1094" y2="17.2367" gradientUnits="userSpaceOnUse">
<stop stop-color="#2B5FAD"/>
<stop offset="1" stop-color="#0B2D60"/>
</linearGradient>
<linearGradient id="paint6_linear_1632_25774" x1="11.552" y1="13.1754" x2="12.4102" y2="14.2367" gradientUnits="userSpaceOnUse">
<stop stop-color="#2B5FAD"/>
<stop offset="1" stop-color="#0B2D60"/>
</linearGradient>
<linearGradient id="paint7_linear_1632_25774" x1="11.552" y1="16.1754" x2="12.4102" y2="17.2367" gradientUnits="userSpaceOnUse">
<stop stop-color="#2B5FAD"/>
<stop offset="1" stop-color="#0B2D60"/>
</linearGradient>
<linearGradient id="paint8_linear_1632_25774" x1="7.85082" y1="13.1754" x2="8.70898" y2="14.2367" gradientUnits="userSpaceOnUse">
<stop stop-color="#2B5FAD"/>
<stop offset="1" stop-color="#0B2D60"/>
</linearGradient>
<linearGradient id="paint9_linear_1632_25774" x1="7.85082" y1="16.1754" x2="8.70898" y2="17.2367" gradientUnits="userSpaceOnUse">
<stop stop-color="#2B5FAD"/>
<stop offset="1" stop-color="#0B2D60"/>
</linearGradient>
</defs>
</svg>
