<svg width="1807" height="1802" viewBox="0 0 1807 1802" fill="none" xmlns="http://www.w3.org/2000/svg">
<g clip-path="url(#clip0_1812_16867)">
<path d="M1362.1 848.183C1409.18 895.261 1395.84 922.331 1348.76 969.408L966.253 1349.56C919.175 1396.64 890.536 1405.27 843.458 1358.19L540.199 1054.93C451.536 966.27 376.997 918.407 465.66 829.744L879.551 434.291C895.244 419.383 919.96 418.991 936.045 433.507L1362.1 848.183ZM901.913 2.74561C873.274 2.74561 844.635 13.7304 822.666 35.7L37.2523 825.429C-6.68687 869.368 -7.86381 936.846 35.6831 980.785L830.904 1762.28C852.874 1784.25 882.298 1796.01 910.936 1796.01C939.575 1796.01 967.822 1783.85 989.792 1762.28L1770.1 980.001C1814.04 936.062 1814.04 865.053 1770.1 821.113L1302.07 364.459L981.161 35.3077C959.191 13.7304 930.552 2.74561 901.913 2.74561Z" fill="white"/>
<path d="M972.567 1554.74C1078.49 1447.24 1182.85 1337.39 1283.28 1224.41C1338.6 1162.42 1384.5 1093.37 1411.57 1013.73C1418.63 993.334 1422.94 972.149 1424.12 950.572C1426.08 906.24 1412.35 869.363 1379.4 836.801C1244.05 703.414 1110.27 568.065 976.098 433.501C969.821 427.224 943.144 398.978 919.997 407.216C919.605 407.216 918.82 407.609 918.428 408.001C909.405 411.532 904.305 397.409 913.328 393.878C927.451 387.993 941.182 382.501 957.659 382.893C997.283 384.462 1034.16 396.624 1069.47 411.532C1155.39 448.409 1228.36 505.295 1295.05 569.242C1384.89 655.551 1471.59 745.391 1560.25 833.27C1597.13 869.755 1610.86 915.263 1608.9 964.695C1606.55 1028.25 1583.79 1086.7 1553.98 1142.02C1523.77 1198.12 1437.85 1313.46 1435.11 1316.6C1367.63 1398.99 1294.27 1476.27 1219.33 1551.6C1151.46 1619.86 1083.98 1687.73 1015.72 1755.6C992.968 1778.36 967.467 1797.19 933.728 1801.11C893.32 1805.82 858.011 1794.44 829.765 1766.59C710.501 1648.11 583.784 1537.08 465.305 1418.21C464.128 1417.03 463.343 1415.07 462.559 1413.11C468.443 1409.58 472.366 1413.11 476.29 1416.64C505.713 1443.71 795.634 1700.68 972.567 1554.74Z" fill="#1276BC"/>
<path d="M1773.29 981.962C1670.11 1089.46 1565.76 1195.77 1461.8 1302.48C1458.66 1305.62 1448.06 1318.17 1444.93 1316.61C1441.39 1314.64 1449.63 1302.87 1450.03 1300.52C1489.26 1250.3 1524.17 1196.95 1554.38 1141.24C1584.2 1085.92 1606.95 1027.47 1609.31 964.307C1611.27 914.876 1597.54 869.367 1560.66 832.882C1472 745.004 1385.29 655.164 1295.45 568.855C1228.76 504.907 1155.79 448.022 1069.87 411.144C1034.56 395.844 997.687 384.074 958.063 382.505C936.094 381.721 883.131 393.49 820.753 455.083C692.074 581.801 565.749 710.48 438.247 837.982C424.516 851.321 412.354 865.444 408.039 889.375C397.446 852.498 403.331 821.113 412.747 790.512C434.716 717.149 477.478 655.948 524.164 596.317C566.141 542.569 615.965 495.884 663.828 448.022C721.89 389.567 781.522 332.681 838.015 272.657C885.093 222.833 941.979 210.279 1005.93 220.087C1098.12 234.21 1176.19 279.719 1251.12 331.504C1324.88 382.505 1392.75 440.96 1456.3 504.123C1561.44 608.086 1665.8 712.442 1770.55 816.797C1818.02 864.66 1819.59 933.707 1773.29 981.962Z" fill="#293C91"/>
<path d="M580.631 1480.98C547.677 1457.83 514.33 1435.86 484.514 1408.01C480.591 1404.48 450.775 1379.37 443.714 1373.49C421.352 1355.05 137.708 1088.67 36.8836 987.057C-11.7634 938.41 -12.548 868.185 34.922 820.323C126.724 727.345 219.702 635.151 312.288 542.957C314.25 540.995 316.211 539.818 318.565 538.249C319.742 539.034 320.919 540.211 322.488 540.995C280.903 603.766 241.672 667.32 219.702 740.291C204.01 792.469 197.732 845.039 213.033 898.394C220.487 924.679 233.825 947.433 253.441 966.656C338.573 1051.4 422.921 1137.31 508.838 1221.66C582.201 1293.06 661.448 1356.62 757.565 1395.85C800.327 1413.5 844.659 1423.7 891.344 1413.89C914.883 1409.19 936.068 1399.38 952.938 1382.12C1090.64 1244.41 1227.95 1106.32 1365.65 968.618C1380.56 953.71 1395.47 939.194 1400.18 911.732C1412.34 960.379 1402.53 1000.4 1387.23 1039.63C1357.41 1116.52 1309.16 1181.25 1254.24 1241.28C956.076 1555.91 901.152 1668.9 580.631 1480.98Z" fill="#293C91"/>
<path d="M1185.98 904.674C1185.98 950.575 1185.58 996.083 1186.37 1041.98C1186.37 1052.97 1184.02 1059.64 1173.82 1065.52C1092.21 1112.21 1011 1158.89 929.796 1206.36C920.772 1211.86 914.103 1211.46 905.08 1205.97C823.871 1158.5 742.662 1111.82 661.06 1065.13C651.645 1059.64 648.898 1053.75 648.898 1043.55C649.291 949.398 649.291 855.243 648.898 761.087C648.898 751.279 652.037 745.787 660.668 741.079C742.662 694.001 824.655 646.924 906.649 599.061C915.28 593.961 921.557 594.354 929.796 599.454C1011.4 646.924 1093.39 694.394 1175.38 741.471C1184.02 746.572 1186.76 752.064 1186.76 761.479C1185.58 809.342 1185.98 856.812 1185.98 904.674ZM1123.6 780.311C1059.26 743.041 995.312 706.555 931.757 669.286C924.303 664.97 918.811 666.539 912.141 670.463C851.725 705.378 791.309 740.687 730.892 775.21C722.654 779.918 718.73 785.018 718.73 794.826C718.73 865.443 718.338 936.059 717.553 1006.68C717.553 1016.09 721.084 1020.8 728.931 1024.72C789.347 1055.72 849.371 1087.1 909.395 1118.49C914.495 1121.23 919.203 1123.98 925.872 1120.45C990.997 1088.28 1056.12 1056.5 1123.6 1023.55C1108.69 1015.7 1095.35 1009.81 1083.19 1002.36C1070.24 994.514 1059.26 994.122 1045.14 1000.79C1008.26 1018.84 970.204 1034.53 932.934 1051.4C923.911 1055.32 916.849 1056.5 907.434 1051.79C865.456 1030.61 823.086 1010.6 780.716 990.591C770.908 985.883 767.77 979.999 767.77 969.406C768.162 919.582 768.554 870.151 767.77 820.327C767.77 808.95 771.693 802.672 781.108 797.18C823.871 773.249 866.241 748.533 908.218 723.425C918.026 717.54 925.088 718.325 934.503 724.21C969.419 745.395 1007.08 763.441 1040.04 787.765C1070.24 810.126 1094.57 806.988 1120.46 784.234C1121.25 783.449 1121.64 782.664 1123.6 780.311Z" fill="#293C91"/>
<path d="M1272.29 327.186C1197.36 274.224 1120.07 228.323 1030.62 208.315C995.315 200.469 959.614 198.507 923.522 205.569C888.213 212.238 858.79 228.323 833.289 253.431C761.103 326.402 689.702 400.157 615.947 471.558C496.684 587.291 380.951 706.162 262.864 822.679C245.602 839.549 232.656 858.38 226.379 886.627C216.571 846.218 218.925 810.518 227.164 774.817C246.779 689.685 289.934 616.322 339.758 546.098C389.189 475.873 445.29 411.142 505.707 350.333C607.316 247.939 709.318 145.545 811.712 43.1507C856.828 -1.96548 910.183 -12.1657 960.791 14.904C971.384 20.3964 980.407 27.8504 988.646 36.089C1079.66 127.106 1170.68 218.123 1261.7 309.532C1266.4 313.455 1272.68 316.986 1272.29 327.186Z" fill="#1276BC"/>
<path d="M404.087 761.871C393.494 791.687 385.648 821.895 385.648 853.673C385.648 893.689 398.595 928.212 428.018 957.244C562.582 1090.63 696.361 1225.19 830.14 1358.97C842.302 1371.14 854.072 1384.47 872.51 1392.32C875.649 1393.89 874.864 1398.6 871.333 1398.99C820.725 1403.31 778.355 1389.18 737.162 1369.57C661.445 1333.47 595.144 1283.26 535.512 1225.59C443.711 1135.75 353.086 1044.34 262.069 953.321C234.999 926.251 233.823 876.819 263.246 846.611C324.447 783.056 387.217 721.463 449.595 659.085C450.772 657.908 462.934 645.354 461.757 648.492C447.242 693.216 417.033 724.994 404.087 761.871Z" fill="#1276BC"/>
<path d="M318.18 539.037C319.357 537.86 320.926 536.291 322.103 535.114C322.887 535.899 324.064 537.076 324.849 537.861C323.672 539.037 322.887 540.607 321.711 541.784C320.926 540.999 319.749 539.822 318.18 539.037Z" fill="#293C91"/>
<path d="M322.473 535.111C323.65 533.934 325.611 531.972 326.003 532.365C329.142 534.326 326.788 536.288 325.611 537.857C324.042 536.68 323.257 535.895 322.473 535.111Z" fill="#293C91"/>
<path d="M1123.61 780.312C1121.64 782.666 1121.25 783.45 1120.86 783.843C1094.97 806.989 1070.64 809.735 1040.44 787.373C1007.48 763.05 969.819 745.396 934.903 723.818C925.487 717.934 918.426 717.541 908.618 723.034C866.64 748.142 824.27 772.465 781.508 796.789C771.7 802.281 767.777 808.558 768.169 819.935C768.954 869.759 768.562 919.191 768.169 969.015C768.169 979.607 771.308 985.492 781.116 990.2C823.486 1010.21 865.856 1030.61 907.833 1051.4C917.249 1056.11 924.31 1055.32 933.334 1051.01C970.604 1034.14 1008.66 1018.45 1045.54 1000.4C1059.66 993.731 1070.64 993.731 1083.59 1001.97C1095.75 1009.42 1108.7 1015.31 1124 1023.15C1056.52 1056.11 991.396 1087.89 926.272 1120.06C919.603 1123.19 914.895 1120.45 909.795 1118.09C849.771 1086.71 789.354 1055.32 729.33 1024.33C721.484 1020.41 717.953 1015.31 717.953 1006.28C718.738 935.668 719.13 865.052 719.13 794.435C719.13 784.627 722.661 779.527 731.292 774.819C792.101 740.296 852.517 705.38 912.541 670.071C919.21 666.148 924.703 664.579 932.157 668.894C995.319 706.557 1059.27 743.042 1123.61 780.312Z" fill="#FEFEFE"/>
</g>
<defs>
<clipPath id="clip0_1812_16867">
<rect width="1807" height="1801.51" fill="white"/>
</clipPath>
</defs>
</svg>
