<svg width="81" height="64" viewBox="0 0 81 64" fill="none" xmlns="http://www.w3.org/2000/svg">
<path d="M19.9 35.6C19.7 35.6 19.4 35.5 19.3 35.3C18.9 34.9 18.9 34.4 19.3 34L53 0.3C53.4 -0.1 53.9 -0.1 54.3 0.3C54.7 0.7 54.7 1.2 54.3 1.6L20.6 35.3C20.4 35.5 20.2 35.6 19.9 35.6Z" fill="#6F7179"/>
<path d="M27.2984 42.8998C27.0984 42.8998 26.7984 42.7998 26.6984 42.5998C26.2984 42.1998 26.2984 41.6998 26.6984 41.2998L60.3984 7.5998C60.7985 7.1998 61.2984 7.1998 61.6984 7.5998C62.0984 7.9998 62.0984 8.49979 61.6984 8.89979L27.9985 42.5998C27.6985 42.7998 27.4984 42.8998 27.2984 42.8998Z" fill="#6F7179"/>
<path d="M60.9985 35.6C60.7985 35.6 60.4984 35.5 60.3984 35.3L26.6984 1.6C26.2984 1.2 26.2984 0.7 26.6984 0.3C27.0984 -0.1 27.5985 -0.1 27.9985 0.3L61.6984 34C62.0984 34.4 62.0984 34.9 61.6984 35.3C61.3984 35.5 61.1985 35.6 60.9985 35.6Z" fill="#6F7179"/>
<path d="M53.6 42.8998C53.4 42.8998 53.1 42.7998 53 42.5998L19.3 8.89979C18.9 8.49979 18.9 7.9998 19.3 7.5998C19.7 7.1998 20.2 7.1998 20.6 7.5998L54.3 41.2998C54.7 41.6998 54.7 42.1998 54.3 42.5998C54.1 42.7998 53.9 42.8998 53.6 42.8998Z" fill="#6F7179"/>
<path d="M5.92353 59.085C4.83627 59.085 3.90286 58.8542 3.12332 58.3927C2.34377 57.9208 1.74372 57.2695 1.32318 56.4387C0.902633 55.5976 0.692361 54.6283 0.692361 53.5307C0.692361 52.4332 0.902633 51.4639 1.32318 50.6228C1.74372 49.7817 2.34377 49.1253 3.12332 48.6535C3.90286 48.1816 4.83627 47.9457 5.92353 47.9457C7.21594 47.9457 8.27243 48.2688 9.093 48.915C9.92384 49.551 10.4418 50.4485 10.647 51.6075H8.47757C8.34423 51.0229 8.05703 50.5664 7.61597 50.2382C7.18517 49.8997 6.61076 49.7305 5.89276 49.7305C4.89781 49.7305 4.11826 50.0689 3.55412 50.7459C2.98997 51.4229 2.7079 52.3512 2.7079 53.5307C2.7079 54.7103 2.98997 55.6386 3.55412 56.3156C4.11826 56.9823 4.89781 57.3157 5.89276 57.3157C6.61076 57.3157 7.18517 57.1618 7.61597 56.8541C8.05703 56.5361 8.34423 56.1002 8.47757 55.5463H10.647C10.4418 56.6541 9.92384 57.5208 9.093 58.1465C8.27243 58.7722 7.21594 59.085 5.92353 59.085ZM14.9751 59.085C14.3186 59.085 13.7801 58.9824 13.3596 58.7773C12.939 58.5619 12.6262 58.2798 12.421 57.9311C12.2159 57.5823 12.1133 57.1977 12.1133 56.7772C12.1133 56.0694 12.3903 55.495 12.9441 55.0539C13.498 54.6129 14.3289 54.3924 15.4366 54.3924H17.3752V54.2077C17.3752 53.6846 17.2265 53.3 16.9291 53.0538C16.6316 52.8076 16.2623 52.6845 15.8213 52.6845C15.4213 52.6845 15.0725 52.782 14.7751 52.9769C14.4776 53.1615 14.293 53.4384 14.2212 53.8077H12.2979C12.3492 53.2538 12.5339 52.7717 12.8518 52.3614C13.1801 51.9511 13.6006 51.6383 14.1135 51.4229C14.6263 51.1972 15.2007 51.0844 15.8367 51.0844C16.9239 51.0844 17.7804 51.3562 18.4061 51.8999C19.0318 52.4435 19.3446 53.2128 19.3446 54.2077V58.9004H17.6676L17.4829 57.6695C17.2573 58.0798 16.9393 58.4183 16.529 58.685C16.129 58.9517 15.611 59.085 14.9751 59.085ZM15.4213 57.5464C15.9854 57.5464 16.4213 57.3618 16.729 56.9926C17.047 56.6233 17.247 56.1668 17.3291 55.6232H15.652C15.1289 55.6232 14.7545 55.7207 14.5289 55.9155C14.3032 56.1002 14.1904 56.331 14.1904 56.6079C14.1904 56.9054 14.3032 57.1362 14.5289 57.3003C14.7545 57.4644 15.052 57.5464 15.4213 57.5464ZM21.224 58.9004V51.269H22.978L23.1626 52.6999C23.4395 52.2076 23.8139 51.8178 24.2858 51.5306C24.7678 51.2331 25.332 51.0844 25.9782 51.0844V53.1615H25.4243C24.9935 53.1615 24.6089 53.2282 24.2704 53.3615C23.9319 53.4948 23.6652 53.7256 23.4703 54.0539C23.2857 54.3821 23.1934 54.8385 23.1934 55.4232V58.9004H21.224ZM31.8476 59.085C31.2732 59.085 30.7706 58.9773 30.3398 58.7619C29.909 58.5465 29.5603 58.2439 29.2936 57.8542L29.0782 58.9004H27.3242V47.8226H29.2936V52.3614C29.5398 52.0229 29.8629 51.7255 30.2629 51.4691C30.6732 51.2126 31.2014 51.0844 31.8476 51.0844C32.5656 51.0844 33.2067 51.2588 33.7709 51.6075C34.335 51.9563 34.7812 52.4332 35.1094 53.0384C35.4377 53.6436 35.6018 54.3308 35.6018 55.1001C35.6018 55.8694 35.4377 56.5566 35.1094 57.1618C34.7812 57.7567 34.335 58.2285 33.7709 58.5773C33.2067 58.9158 32.5656 59.085 31.8476 59.085ZM31.4322 57.3618C32.0579 57.3618 32.5759 57.1515 32.9862 56.731C33.3965 56.3104 33.6016 55.7668 33.6016 55.1001C33.6016 54.4334 33.3965 53.8846 32.9862 53.4538C32.5759 53.023 32.0579 52.8076 31.4322 52.8076C30.7963 52.8076 30.2732 53.023 29.8629 53.4538C29.4628 53.8744 29.2628 54.418 29.2628 55.0847C29.2628 55.7514 29.4628 56.3002 29.8629 56.731C30.2732 57.1515 30.7963 57.3618 31.4322 57.3618ZM41.0229 59.085C40.2843 59.085 39.6176 58.9158 39.0227 58.5773C38.438 58.2388 37.9713 57.7721 37.6226 57.1772C37.2841 56.572 37.1149 55.8745 37.1149 55.0847C37.1149 54.2949 37.2892 53.6025 37.638 53.0076C37.9867 52.4025 38.4534 51.9306 39.0381 51.5921C39.633 51.2537 40.2997 51.0844 41.0382 51.0844C41.7665 51.0844 42.423 51.2537 43.0076 51.5921C43.6025 51.9306 44.0692 52.4025 44.4077 53.0076C44.7565 53.6025 44.9308 54.2949 44.9308 55.0847C44.9308 55.8745 44.7565 56.572 44.4077 57.1772C44.0692 57.7721 43.6025 58.2388 43.0076 58.5773C42.4127 58.9158 41.7511 59.085 41.0229 59.085ZM41.0229 57.3772C41.5357 57.3772 41.9819 57.1874 42.3614 56.8079C42.7409 56.4181 42.9307 55.8437 42.9307 55.0847C42.9307 54.3257 42.7409 53.7564 42.3614 53.3769C41.9819 52.9871 41.5408 52.7922 41.0382 52.7922C40.5151 52.7922 40.0638 52.9871 39.6843 53.3769C39.315 53.7564 39.1304 54.3257 39.1304 55.0847C39.1304 55.8437 39.315 56.4181 39.6843 56.8079C40.0638 57.1874 40.51 57.3772 41.0229 57.3772ZM46.6917 58.9004V51.269H48.4303L48.5841 52.5614C48.82 52.1101 49.1585 51.7511 49.5996 51.4844C50.0509 51.2178 50.5792 51.0844 51.1843 51.0844C52.128 51.0844 52.8614 51.3819 53.3845 51.9768C53.9076 52.5717 54.1692 53.4436 54.1692 54.5924V58.9004H52.1998V54.777C52.1998 54.1205 52.0664 53.6179 51.7998 53.2692C51.5331 52.9204 51.1177 52.7461 50.5535 52.7461C49.9996 52.7461 49.5432 52.941 49.1842 53.3307C48.8354 53.7205 48.6611 54.2641 48.6611 54.9616V58.9004H46.6917ZM56.8986 49.5766C56.6422 49.5766 56.4268 49.4945 56.2524 49.3304C56.0883 49.1561 56.0062 48.9407 56.0062 48.6842C56.0062 48.4381 56.0883 48.2329 56.2524 48.0688C56.4268 47.9047 56.6422 47.8226 56.8986 47.8226C57.1448 47.8226 57.355 47.9047 57.5294 48.0688C57.7038 48.2329 57.791 48.4381 57.791 48.6842C57.791 48.9407 57.7038 49.1561 57.5294 49.3304C57.355 49.4945 57.1448 49.5766 56.8986 49.5766ZM56.2524 58.9004V51.269H57.5448V58.9004H56.2524ZM63.8723 59.085C63.2466 59.085 62.6876 58.9568 62.1953 58.7004C61.7132 58.4439 61.3439 58.0849 61.0875 57.6234L60.9644 58.9004H59.7951V47.8226H61.0875V52.5307C61.3337 52.1614 61.6824 51.8281 62.1337 51.5306C62.5953 51.2331 63.18 51.0844 63.8877 51.0844C64.6467 51.0844 65.3083 51.2588 65.8725 51.6075C66.4366 51.9563 66.8725 52.4332 67.1803 53.0384C67.4982 53.6436 67.6572 54.3308 67.6572 55.1001C67.6572 55.8694 67.4982 56.5566 67.1803 57.1618C66.8725 57.7567 66.4315 58.2285 65.8571 58.5773C65.2929 58.9158 64.6314 59.085 63.8723 59.085ZM63.7338 57.9619C64.2467 57.9619 64.698 57.8439 65.0878 57.608C65.4776 57.3618 65.7853 57.0233 66.0109 56.5925C66.2366 56.1617 66.3494 55.6591 66.3494 55.0847C66.3494 54.5103 66.2366 54.0077 66.0109 53.5769C65.7853 53.1461 65.4776 52.8127 65.0878 52.5768C64.698 52.3307 64.2467 52.2076 63.7338 52.2076C63.221 52.2076 62.7697 52.3307 62.3799 52.5768C61.9901 52.8127 61.6824 53.1461 61.4567 53.5769C61.2311 54.0077 61.1183 54.5103 61.1183 55.0847C61.1183 55.6591 61.2311 56.1617 61.4567 56.5925C61.6824 57.0233 61.9901 57.3618 62.3799 57.608C62.7697 57.8439 63.221 57.9619 63.7338 57.9619ZM69.4563 58.9004V47.8226H70.7487V58.9004H69.4563ZM76.298 59.085C75.5698 59.085 74.9236 58.9209 74.3594 58.5927C73.7953 58.2542 73.3491 57.7875 73.0209 57.1926C72.7029 56.5976 72.5439 55.895 72.5439 55.0847C72.5439 54.2847 72.7029 53.5872 73.0209 52.9922C73.3388 52.3871 73.7799 51.9204 74.344 51.5921C74.9184 51.2537 75.58 51.0844 76.3288 51.0844C77.0673 51.0844 77.7033 51.2537 78.2366 51.5921C78.7803 51.9204 79.1957 52.3563 79.4829 52.8999C79.7701 53.4436 79.9137 54.0282 79.9137 54.6539C79.9137 54.7667 79.9086 54.8796 79.8983 54.9924C79.8983 55.1052 79.8983 55.2334 79.8983 55.377H73.8209C73.8517 55.9617 73.985 56.4489 74.221 56.8387C74.4671 57.2182 74.7697 57.5054 75.1287 57.7003C75.498 57.8952 75.8877 57.9926 76.298 57.9926C76.8314 57.9926 77.2776 57.8695 77.6366 57.6234C77.9956 57.3772 78.2572 57.0438 78.4213 56.6233H79.6983C79.4932 57.331 79.0982 57.9208 78.5136 58.3927C77.9392 58.8542 77.2007 59.085 76.298 59.085ZM76.298 52.1768C75.6826 52.1768 75.1338 52.3666 74.6518 52.7461C74.1799 53.1153 73.9081 53.659 73.8363 54.377H78.6367C78.6059 53.6897 78.37 53.1512 77.9289 52.7615C77.4879 52.3717 76.9442 52.1768 76.298 52.1768Z" fill="#4C5563"/>
</svg>
