<svg width="25" height="24" viewBox="0 0 25 24" fill="none" xmlns="http://www.w3.org/2000/svg">
<path d="M17.1992 18.98H7.79922C7.37922 18.98 6.90922 18.65 6.76922 18.25L2.62922 6.67C2.03922 5.01 2.72922 4.5 4.14922 5.52L8.04922 8.31C8.69922 8.76 9.43922 8.53 9.71922 7.8L11.4792 3.11C12.0392 1.61 12.9692 1.61 13.5292 3.11L15.2892 7.8C15.5692 8.53 16.3092 8.76 16.9492 8.31L20.6092 5.7C22.1692 4.58 22.9192 5.15 22.2792 6.96L18.2392 18.27C18.0892 18.65 17.6192 18.98 17.1992 18.98Z" stroke="#4C5563" stroke-width="1.5" stroke-linecap="round" stroke-linejoin="round"/>
<path d="M7 22H18" stroke="#4C5563" stroke-width="1.5" stroke-linecap="round" stroke-linejoin="round"/>
<path d="M10 14H15" stroke="#4C5563" stroke-width="1.5" stroke-linecap="round" stroke-linejoin="round"/>
</svg>
