<svg width="24" height="24" viewBox="0 0 24 24" fill="none" xmlns="http://www.w3.org/2000/svg">
<path d="M16 22H9C6 22 4 20 4 17V7C4 4 6 2 9 2H16C19 2 21 4 21 7V17C21 20 19 22 16 22Z" stroke="url(#paint0_linear_2413_19617)" stroke-width="1.5" stroke-linecap="round" stroke-linejoin="round"/>
<path d="M4 15H21" stroke="url(#paint1_linear_2413_19617)" stroke-width="1.5" stroke-linecap="round" stroke-linejoin="round"/>
<path d="M7 12H8" stroke="url(#paint2_linear_2413_19617)" stroke-width="1.5" stroke-linecap="round" stroke-linejoin="round"/>
<path d="M7 9.5H8" stroke="url(#paint3_linear_2413_19617)" stroke-width="1.5" stroke-linecap="round" stroke-linejoin="round"/>
<path d="M7 7H8" stroke="url(#paint4_linear_2413_19617)" stroke-width="1.5" stroke-linecap="round" stroke-linejoin="round"/>
<path d="M16.4945 18.25H16.5035" stroke="url(#paint5_linear_2413_19617)" stroke-width="2" stroke-linecap="round" stroke-linejoin="round"/>
<defs>
<linearGradient id="paint0_linear_2413_19617" x1="4.86903" y1="1.50819" x2="22.3974" y2="19.9718" gradientUnits="userSpaceOnUse">
<stop stop-color="#2B5FAD"/>
<stop offset="1" stop-color="#0B2D60"/>
</linearGradient>
<linearGradient id="paint1_linear_2413_19617" x1="4.86903" y1="14.9754" x2="4.95216" y2="16.7267" gradientUnits="userSpaceOnUse">
<stop stop-color="#2B5FAD"/>
<stop offset="1" stop-color="#0B2D60"/>
</linearGradient>
<linearGradient id="paint2_linear_2413_19617" x1="7.05112" y1="11.9754" x2="7.90892" y2="13.0384" gradientUnits="userSpaceOnUse">
<stop stop-color="#2B5FAD"/>
<stop offset="1" stop-color="#0B2D60"/>
</linearGradient>
<linearGradient id="paint3_linear_2413_19617" x1="7.05112" y1="9.47541" x2="7.90892" y2="10.5384" gradientUnits="userSpaceOnUse">
<stop stop-color="#2B5FAD"/>
<stop offset="1" stop-color="#0B2D60"/>
</linearGradient>
<linearGradient id="paint4_linear_2413_19617" x1="7.05112" y1="6.97541" x2="7.90892" y2="8.03843" gradientUnits="userSpaceOnUse">
<stop stop-color="#2B5FAD"/>
<stop offset="1" stop-color="#0B2D60"/>
</linearGradient>
<linearGradient id="paint5_linear_2413_19617" x1="16.051" y1="17.7254" x2="16.9092" y2="18.7867" gradientUnits="userSpaceOnUse">
<stop stop-color="#2B5FAD"/>
<stop offset="1" stop-color="#0B2D60"/>
</linearGradient>
</defs>
</svg>
