<svg width="12" height="12" viewBox="0 0 12 12" fill="none" xmlns="http://www.w3.org/2000/svg">
<path d="M10.6965 7.75989C11.0704 7.75989 11.4004 8.08985 11.4004 8.46381V10.5756C11.4004 10.9715 11.0704 11.2795 10.6965 11.2795H0.841613C0.445659 11.2795 0.137695 10.9715 0.137695 10.5756V8.46381C0.137695 8.08985 0.445659 7.75989 0.841613 7.75989H3.76727L4.75716 8.77177C5.02113 9.03574 5.37308 9.16773 5.76904 9.16773C6.14299 9.16773 6.49495 9.03574 6.75892 8.77177L7.74881 7.75989H10.6965ZM9.64059 10.0476C9.92655 10.0476 10.1685 9.82765 10.1685 9.51968C10.1685 9.23372 9.92655 8.99175 9.64059 8.99175C9.33262 8.99175 9.11265 9.23372 9.11265 9.51968C9.11265 9.82765 9.33262 10.0476 9.64059 10.0476ZM5.2631 8.26583L2.44743 5.45016C2.16146 5.18619 2.16146 4.72424 2.44743 4.46027C2.71139 4.17431 3.17334 4.17431 3.43731 4.46027L5.06512 6.06609V0.720711C5.06512 0.346755 5.37308 0.016793 5.76904 0.016793C6.14299 0.016793 6.47296 0.346755 6.47296 0.720711V6.06609L8.07877 4.46027C8.34274 4.17431 8.80468 4.17431 9.06865 4.46027C9.35462 4.72424 9.35462 5.18619 9.06865 5.45016L6.25298 8.26583C6.121 8.39782 5.94502 8.46381 5.76904 8.46381C5.57106 8.46381 5.39508 8.39782 5.2631 8.26583Z" fill="#4C5563"/>
</svg>
