<svg width="78" height="78" viewBox="0 0 78 78" fill="none" xmlns="http://www.w3.org/2000/svg">
<path fill-rule="evenodd" clip-rule="evenodd" d="M49.5336 7.29512L65.9479 24.5586C66.3821 25.0167 66.6251 25.6253 66.6251 26.2601V56.3273C66.6251 64.5534 59.9797 71.5 52.1095 71.5H26.2277C17.8974 71.5 11.3751 64.8348 11.3751 56.3273L11.375 29.6991C11.375 29.6914 11.375 29.6838 11.3751 29.6762V21.1949C11.3751 13.2503 18.1761 6.53927 26.2277 6.53927H46.7407C46.7718 6.53627 46.8002 6.5278 46.8281 6.51948C46.8612 6.50963 46.8935 6.5 46.9286 6.5C46.9665 6.5 47.0004 6.51016 47.0342 6.52029C47.0611 6.52834 47.0878 6.53637 47.1165 6.53927H47.7808C48.4417 6.53927 49.0735 6.81085 49.5336 7.29512ZM16.2352 34.8078C16.2352 34.8009 16.2352 34.7941 16.2352 34.7872V21.1949C16.2352 15.9105 20.8102 11.4474 26.2277 11.4474H44.4985V18.4758C44.4985 24.4638 49.323 29.3424 55.2492 29.3555H55.2524C56.5938 29.3555 57.6792 28.2594 57.6825 26.908C57.6857 25.5501 56.6003 24.4507 55.2589 24.4474C52.0058 24.4409 49.3587 21.761 49.3587 18.4758V14.1959L61.765 27.245V56.3273C61.765 61.8899 57.3455 66.5919 52.1095 66.5919H26.2277C20.5284 66.5919 16.2352 62.1778 16.2352 56.3273L16.2352 34.8078ZM40.1808 52.3553C40.1808 53.7099 39.0921 54.8093 37.7507 54.8093C36.4093 54.8093 35.3207 53.7099 35.3207 52.3553V36.7867L30.2758 41.9075C29.3297 42.8695 27.7907 42.8695 26.8381 41.914C25.8888 40.9586 25.8855 39.4043 26.8316 38.4423L36.0302 29.1136V29.1104C36.4709 28.6686 37.08 28.3938 37.7507 28.3938C38.4247 28.3938 39.0306 28.6686 39.4712 29.1104V29.1136L48.6698 38.4423C49.6159 39.4043 49.6127 40.9586 48.6633 41.914C48.1871 42.3885 47.5682 42.6273 46.9461 42.6273C46.324 42.6273 45.7019 42.3885 45.2256 41.9075L40.1808 36.7867V52.3553Z" fill="url(#paint0_linear_304_4193)"/>
<defs>
<linearGradient id="paint0_linear_304_4193" x1="14.1994" y1="4.9016" x2="71.1667" y2="64.9086" gradientUnits="userSpaceOnUse">
<stop stop-color="#2B5FAD"/>
<stop offset="1" stop-color="#0B2D60"/>
</linearGradient>
</defs>
</svg>
