<svg width="35" height="34" viewBox="0 0 35 34" fill="none" xmlns="http://www.w3.org/2000/svg">
<path fill-rule="evenodd" clip-rule="evenodd" d="M22.0913 3.17984L29.2462 10.705C29.4355 10.9047 29.5414 11.1699 29.5414 11.4466V24.5529C29.5414 28.1386 26.6447 31.1666 23.2141 31.1666H11.9323C8.30111 31.1666 5.45805 28.2612 5.45805 24.5529L5.45801 12.9457C5.45801 12.9423 5.45802 12.939 5.45805 12.9357V9.23874C5.45805 5.7757 8.42257 2.85037 11.9323 2.85037H20.8738C20.8874 2.84906 20.8998 2.84537 20.9119 2.84175C20.9263 2.83745 20.9404 2.83325 20.9557 2.83325C20.9723 2.83325 20.987 2.83768 21.0018 2.8421C21.0135 2.8456 21.0251 2.8491 21.0376 2.85037H21.3272C21.6153 2.85037 21.8907 2.96875 22.0913 3.17984ZM7.57654 15.1725C7.57656 15.1696 7.57657 15.1666 7.57657 15.1636V9.23874C7.57657 6.93527 9.57081 4.98981 11.9323 4.98981H19.8965V8.05349C19.8965 10.6636 21.9995 12.7902 24.5826 12.7959H24.5841C25.1688 12.7959 25.6419 12.3181 25.6433 11.729C25.6447 11.1371 25.1716 10.6579 24.5869 10.6565C23.1689 10.6536 22.015 9.48549 22.015 8.05349V6.1879L27.4229 11.876V24.5529C27.4229 26.9776 25.4964 29.0271 23.2141 29.0271H11.9323C9.44793 29.0271 7.57657 27.1031 7.57657 24.5529L7.57654 15.1725ZM18.014 22.8215C18.014 23.4119 17.5395 23.8912 16.9547 23.8912C16.37 23.8912 15.8955 23.4119 15.8955 22.8215V16.0352L13.6965 18.2673C13.2841 18.6866 12.6132 18.6866 12.198 18.2702C11.7841 17.8537 11.7827 17.1762 12.1951 16.7569L16.2048 12.6905V12.6891C16.3969 12.4965 16.6624 12.3767 16.9547 12.3767C17.2485 12.3767 17.5126 12.4965 17.7047 12.6891V12.6905L21.7144 16.7569C22.1268 17.1762 22.1254 17.8537 21.7115 18.2702C21.5039 18.477 21.2342 18.5811 20.963 18.5811C20.6918 18.5811 20.4206 18.477 20.213 18.2673L18.014 16.0352V22.8215Z" fill="#5F41B2"/>
</svg>
