<svg width="38" height="38" viewBox="0 0 38 38" fill="none" xmlns="http://www.w3.org/2000/svg">
<g clip-path="url(#clip0_770_13304)">
<path d="M29 17V20C29 24 27 26 23 26H22.5C22.19 26 21.89 26.15 21.7 26.4L20.2 28.4C19.54 29.28 18.46 29.28 17.8 28.4L16.3 26.4C16.14 26.18 15.77 26 15.5 26H15C11 26 9 25 9 20V15C9 11 11 9 15 9H21" stroke="url(#paint0_linear_770_13304)" stroke-width="1.5" stroke-miterlimit="10" stroke-linecap="round" stroke-linejoin="round"/>
<path d="M26.5 14C27.8807 14 29 12.8807 29 11.5C29 10.1193 27.8807 9 26.5 9C25.1193 9 24 10.1193 24 11.5C24 12.8807 25.1193 14 26.5 14Z" fill="#FF5151"/>
<path d="M22.9965 18H23.0054" stroke="url(#paint1_linear_770_13304)" stroke-width="2" stroke-linecap="round" stroke-linejoin="round"/>
<path d="M18.9955 18H19.0045" stroke="url(#paint2_linear_770_13304)" stroke-width="2" stroke-linecap="round" stroke-linejoin="round"/>
<path d="M14.9945 18H15.0035" stroke="url(#paint3_linear_770_13304)" stroke-width="2" stroke-linecap="round" stroke-linejoin="round"/>
<g filter="url(#filter0_d_770_13304)">
<rect x="-35" y="48" width="108" height="40.001" rx="8" fill="#212121"/>
</g>
</g>
<defs>
<filter id="filter0_d_770_13304" x="-43" y="37.6579" width="124" height="62.3431" filterUnits="userSpaceOnUse" color-interpolation-filters="sRGB">
<feFlood flood-opacity="0" result="BackgroundImageFix"/>
<feColorMatrix in="SourceAlpha" type="matrix" values="0 0 0 0 0 0 0 0 0 0 0 0 0 0 0 0 0 0 127 0" result="hardAlpha"/>
<feOffset dy="4"/>
<feGaussianBlur stdDeviation="4"/>
<feColorMatrix type="matrix" values="0 0 0 0 0 0 0 0 0 0 0 0 0 0 0 0 0 0 0.2 0"/>
<feBlend mode="normal" in2="BackgroundImageFix" result="effect1_dropShadow_770_13304"/>
<feBlend mode="normal" in="SourceGraphic" in2="effect1_dropShadow_770_13304" result="shape"/>
</filter>
<linearGradient id="paint0_linear_770_13304" x1="10.0224" y1="8.50671" x2="27.2406" y2="29.7804" gradientUnits="userSpaceOnUse">
<stop stop-color="#2B5FAD"/>
<stop offset="1" stop-color="#0B2D60"/>
</linearGradient>
<linearGradient id="paint1_linear_770_13304" x1="22.553" y1="17.4754" x2="23.4111" y2="18.5367" gradientUnits="userSpaceOnUse">
<stop stop-color="#2B5FAD"/>
<stop offset="1" stop-color="#0B2D60"/>
</linearGradient>
<linearGradient id="paint2_linear_770_13304" x1="18.552" y1="17.4754" x2="19.4102" y2="18.5367" gradientUnits="userSpaceOnUse">
<stop stop-color="#2B5FAD"/>
<stop offset="1" stop-color="#0B2D60"/>
</linearGradient>
<linearGradient id="paint3_linear_770_13304" x1="14.551" y1="17.4754" x2="15.4092" y2="18.5367" gradientUnits="userSpaceOnUse">
<stop stop-color="#2B5FAD"/>
<stop offset="1" stop-color="#0B2D60"/>
</linearGradient>
<clipPath id="clip0_770_13304">
<rect width="38" height="38" rx="4" fill="white"/>
</clipPath>
</defs>
</svg>
