<svg width="24" height="24" viewBox="0 0 24 24" fill="none" xmlns="http://www.w3.org/2000/svg">
<path d="M12.0206 2.90997C8.71058 2.90997 6.02058 5.59997 6.02058 8.90997V11.8C6.02058 12.41 5.76058 13.34 5.45058 13.86L4.30058 15.77C3.59058 16.95 4.08058 18.26 5.38058 18.7C9.69058 20.14 14.3406 20.14 18.6506 18.7C19.8606 18.3 20.3906 16.87 19.7306 15.77L18.5806 13.86C18.2806 13.34 18.0206 12.41 18.0206 11.8V8.90997C18.0206 5.60997 15.3206 2.90997 12.0206 2.90997Z" stroke="url(#paint0_linear_451_7836)" stroke-width="1.5" stroke-miterlimit="10" stroke-linecap="round"/>
<path d="M13.8699 3.2C13.5599 3.11 13.2399 3.04 12.9099 3C11.9499 2.88 11.0299 2.95 10.1699 3.2C10.4599 2.46 11.1799 1.94 12.0199 1.94C12.8599 1.94 13.5799 2.46 13.8699 3.2Z" stroke="url(#paint1_linear_451_7836)" stroke-width="1.5" stroke-miterlimit="10" stroke-linecap="round" stroke-linejoin="round"/>
<path d="M15.0195 19.06C15.0195 20.71 13.6695 22.06 12.0195 22.06C11.1995 22.06 10.4395 21.72 9.89953 21.18C9.35953 20.64 9.01953 19.88 9.01953 19.06" stroke="url(#paint2_linear_451_7836)" stroke-width="1.5" stroke-miterlimit="10"/>
<defs>
<linearGradient id="paint0_linear_451_7836" x1="4.79469" y1="2.49513" x2="19.4025" y2="19.7098" gradientUnits="userSpaceOnUse">
<stop stop-color="#2B5FAD"/>
<stop offset="1" stop-color="#0B2D60"/>
</linearGradient>
<linearGradient id="paint1_linear_451_7836" x1="10.3591" y1="1.90902" x2="10.9241" y2="3.96531" gradientUnits="userSpaceOnUse">
<stop stop-color="#2B5FAD"/>
<stop offset="1" stop-color="#0B2D60"/>
</linearGradient>
<linearGradient id="paint2_linear_451_7836" x1="9.32625" y1="18.9862" x2="11.1534" y2="23.5147" gradientUnits="userSpaceOnUse">
<stop stop-color="#2B5FAD"/>
<stop offset="1" stop-color="#0B2D60"/>
</linearGradient>
</defs>
</svg>
