<svg width="21" height="20" viewBox="0 0 21 20" fill="none" xmlns="http://www.w3.org/2000/svg">
<path d="M13.3757 11.6669H12.7173L12.484 11.4419C13.3007 10.4919 13.7923 9.25858 13.7923 7.91691C13.7923 4.92524 11.3673 2.50024 8.37565 2.50024C5.38398 2.50024 2.95898 4.92524 2.95898 7.91691C2.95898 10.9086 5.38398 13.3336 8.37565 13.3336C9.71732 13.3336 10.9507 12.8419 11.9007 12.0252L12.1257 12.2586V12.9169L16.2923 17.0752L17.534 15.8336L13.3757 11.6669ZM8.37565 11.6669C6.30065 11.6669 4.62565 9.99191 4.62565 7.91691C4.62565 5.84191 6.30065 4.16691 8.37565 4.16691C10.4507 4.16691 12.1257 5.84191 12.1257 7.91691C12.1257 9.99191 10.4507 11.6669 8.37565 11.6669Z" fill="#505565"/>
</svg>
