<svg width="24" height="24" viewBox="0 0 24 24" fill="none" xmlns="http://www.w3.org/2000/svg">
<path d="M18 7.16C17.94 7.15 17.87 7.15 17.81 7.16C16.43 7.11 15.33 5.98 15.33 4.58C15.33 3.15 16.48 2 17.91 2C19.34 2 20.49 3.16 20.49 4.58C20.48 5.98 19.38 7.11 18 7.16Z" stroke="url(#paint0_linear_828_14427)" stroke-width="1.5" stroke-linecap="round" stroke-linejoin="round"/>
<path d="M16.97 14.44C18.34 14.67 19.85 14.43 20.91 13.72C22.32 12.78 22.32 11.24 20.91 10.3C19.84 9.59004 18.31 9.35003 16.94 9.59003" stroke="url(#paint1_linear_828_14427)" stroke-width="1.5" stroke-linecap="round" stroke-linejoin="round"/>
<path d="M5.97 7.16C6.03 7.15 6.1 7.15 6.16 7.16C7.54 7.11 8.64 5.98 8.64 4.58C8.64 3.15 7.49 2 6.06 2C4.63 2 3.48 3.16 3.48 4.58C3.49 5.98 4.59 7.11 5.97 7.16Z" stroke="url(#paint2_linear_828_14427)" stroke-width="1.5" stroke-linecap="round" stroke-linejoin="round"/>
<path d="M7 14.44C5.63 14.67 4.12 14.43 3.06 13.72C1.65 12.78 1.65 11.24 3.06 10.3C4.13 9.59004 5.66 9.35003 7.03 9.59003" stroke="url(#paint3_linear_828_14427)" stroke-width="1.5" stroke-linecap="round" stroke-linejoin="round"/>
<path d="M12 14.63C11.94 14.62 11.87 14.62 11.81 14.63C10.43 14.58 9.33 13.45 9.33 12.05C9.33 10.62 10.48 9.46997 11.91 9.46997C13.34 9.46997 14.49 10.63 14.49 12.05C14.48 13.45 13.38 14.59 12 14.63Z" stroke="url(#paint4_linear_828_14427)" stroke-width="1.5" stroke-linecap="round" stroke-linejoin="round"/>
<path d="M9.09 17.78C7.68 18.72 7.68 20.26 9.09 21.2C10.69 22.27 13.31 22.27 14.91 21.2C16.32 20.26 16.32 18.72 14.91 17.78C13.32 16.72 10.69 16.72 9.09 17.78Z" stroke="url(#paint5_linear_828_14427)" stroke-width="1.5" stroke-linecap="round" stroke-linejoin="round"/>
<defs>
<linearGradient id="paint0_linear_828_14427" x1="15.5938" y1="1.87311" x2="20.02" y2="7.35828" gradientUnits="userSpaceOnUse">
<stop stop-color="#2B5FAD"/>
<stop offset="1" stop-color="#0B2D60"/>
</linearGradient>
<linearGradient id="paint1_linear_828_14427" x1="17.197" y1="9.37632" x2="21.5065" y2="14.72" gradientUnits="userSpaceOnUse">
<stop stop-color="#2B5FAD"/>
<stop offset="1" stop-color="#0B2D60"/>
</linearGradient>
<linearGradient id="paint2_linear_828_14427" x1="3.74377" y1="1.87311" x2="8.17" y2="7.35828" gradientUnits="userSpaceOnUse">
<stop stop-color="#2B5FAD"/>
<stop offset="1" stop-color="#0B2D60"/>
</linearGradient>
<linearGradient id="paint3_linear_828_14427" x1="2.25951" y1="9.37632" x2="6.56904" y2="14.72" gradientUnits="userSpaceOnUse">
<stop stop-color="#2B5FAD"/>
<stop offset="1" stop-color="#0B2D60"/>
</linearGradient>
<linearGradient id="paint4_linear_828_14427" x1="9.59378" y1="9.34308" x2="14.02" y2="14.8282" gradientUnits="userSpaceOnUse">
<stop stop-color="#2B5FAD"/>
<stop offset="1" stop-color="#0B2D60"/>
</linearGradient>
<linearGradient id="paint5_linear_828_14427" x1="8.43813" y1="16.8616" x2="12.0035" y2="23.8491" gradientUnits="userSpaceOnUse">
<stop stop-color="#2B5FAD"/>
<stop offset="1" stop-color="#0B2D60"/>
</linearGradient>
</defs>
</svg>
